<?xml version="1.0" encoding="UTF-8"?>
<svg height="128px" viewBox="0 0 128 128" width="128px" xmlns="http://www.w3.org/2000/svg" xmlns:xlink="http://www.w3.org/1999/xlink">
    <linearGradient id="a" gradientTransform="matrix(0.232143 0 0 0.328947 -8.56691 263.826965)" gradientUnits="userSpaceOnUse" x1="88.595886" x2="536.595886" y1="-449.394012" y2="-449.394012">
        <stop offset="0" stop-color="#14a9a9"/>
        <stop offset="0.115385" stop-color="#7af0f0"/>
        <stop offset="0.230769" stop-color="#16a7a7"/>
        <stop offset="0.769475" stop-color="#15a7a7"/>
        <stop offset="0.884615" stop-color="#7deeee"/>
        <stop offset="1" stop-color="#15a8a8"/>
    </linearGradient>
    <linearGradient id="b" gradientUnits="userSpaceOnUse" x1="64" x2="64" y1="12" y2="112">
        <stop offset="0" stop-color="#1c71d8"/>
        <stop offset="1" stop-color="#31e3e5"/>
    </linearGradient>
    <radialGradient id="c" cx="-294.905762" cy="224.070587" gradientTransform="matrix(1.0563 0 0 1.082009 382.508911 -192.446325)" gradientUnits="userSpaceOnUse" r="19.210655">
        <stop offset="0" stop-color="#f9f06b"/>
        <stop offset="0.6" stop-color="#f6d32d"/>
        <stop offset="1" stop-color="#ffb91f"/>
    </radialGradient>
    <linearGradient id="d" gradientTransform="matrix(0 -1 -1 0 -1 318.366425)" gradientUnits="userSpaceOnUse" x1="222.366211" x2="268.000214" y1="-49.586292" y2="-49.586292">
        <stop offset="0" stop-color="#a3cbfa"/>
        <stop offset="1" stop-color="#ffffff"/>
    </linearGradient>
    <linearGradient id="e" gradientTransform="matrix(0 -1 -1 0 330.367981 159.367981)" gradientUnits="userSpaceOnUse" x1="63.367977" x2="92.949928" y1="253.20903" y2="253.20903">
        <stop offset="0" stop-color="#a4ccf9"/>
        <stop offset="1" stop-color="#ffffff"/>
    </linearGradient>
    <path d="m 36 12 h 56 c 13.253906 0 24 10.746094 24 24 v 56 c 0 13.253906 -10.746094 24 -24 24 h -56 c -13.253906 0 -24 -10.746094 -24 -24 v -56 c 0 -13.253906 10.746094 -24 24 -24 z m 0 0" fill="url(#a)"/>
    <path d="m 36 12 h 56 c 13.253906 0 24 10.746094 24 24 v 52 c 0 13.253906 -10.746094 24 -24 24 h -56 c -13.253906 0 -24 -10.746094 -24 -24 v -52 c 0 -13.253906 10.746094 -24 24 -24 z m 0 0" fill="url(#b)"/>
    <path d="m 48.585938 52.367188 c -12.300782 0 -22.273438 10.214843 -22.273438 22.816406 c 0 12.601562 9.972656 22.816406 22.273438 22.816406 c 0.078124 -0.007812 0.160156 -0.011719 0.238281 -0.019531 c 0.003906 0.007812 0.011719 0.019531 0.015625 0.019531 h 28.332031 c 0.011719 0 0.679687 -0.019531 0.691406 -0.050781 c 7.679688 -0.382813 13.71875 -6.863281 13.738281 -14.742188 c -0.003906 -8.167969 -6.46875 -14.789062 -14.441406 -14.789062 c -2.390625 0.011719 -4.742187 0.632812 -6.839844 1.804687 c -2.265624 -10.429687 -11.300781 -17.851562 -21.734374 -17.855468 z m 0 0" fill="#8cbdf8"/>
    <path d="m 92.828125 60.753906 c 0 12.511719 -9.902344 22.65625 -22.121094 22.65625 c -12.214843 0 -22.121093 -10.144531 -22.121093 -22.65625 c 0 -12.515625 9.90625 -22.660156 22.121093 -22.660156 c 12.21875 0 22.121094 10.144531 22.121094 22.660156 z m 0 0" fill="url(#c)"/>
    <g fill="none" stroke="#ffb109" stroke-linecap="round" stroke-linejoin="round" stroke-width="4">
        <path d="m 70.707031 33.6875 v -6.296875"/>
        <path d="m 93.589844 47.21875 l 5.324218 -3.148438"/>
        <path d="m 47.933594 47.132812 l -5.320313 -3.148437"/>
        <path d="m 93.589844 74.285156 l 5.324218 3.148438"/>
        <path d="m 57.78125 37.539062 l -3.035156 -5.386718"/>
        <path d="m 83.742188 83.878906 l 3.035156 5.386719"/>
        <path d="m 44.203125 60.367188 l -6.183594 -0.066407"/>
        <path d="m 97.320312 61.050781 l 6.183594 0.066407"/>
        <path d="m 57.1875 83.539062 l -3.148438 5.320313"/>
        <path d="m 84.339844 37.878906 l 3.144531 -5.320312"/>
    </g>
    <path d="m 48.585938 50.367188 c -12.300782 0 -22.273438 10.214843 -22.273438 22.816406 c 0 12.601562 9.972656 22.816406 22.273438 22.816406 c 0.078124 -0.007812 0.160156 -0.011719 0.238281 -0.019531 c 0.003906 0.007812 0.011719 0.019531 0.015625 0.019531 h 28.332031 c 0.011719 0 0.679687 -0.019531 0.691406 -0.050781 c 7.679688 -0.382813 13.71875 -6.863281 13.738281 -14.742188 c -0.003906 -8.167969 -6.46875 -14.789062 -14.441406 -14.789062 c -2.390625 0.011719 -4.742187 0.632812 -6.839844 1.804687 c -2.265624 -10.429687 -11.300781 -17.851562 -21.734374 -17.855468 z m 0 0" fill="#a4ccf9"/>
    <path d="m 48.585938 50.367188 c -12.601563 0 -22.816407 10.214843 -22.816407 22.816406 c 0 12.601562 10.214844 22.816406 22.816407 22.816406 c 12.601562 0 22.816406 -10.214844 22.816406 -22.816406 c 0 -12.601563 -10.214844 -22.816406 -22.816406 -22.816406 z m 0 0" fill="url(#d)"/>
    <path d="m 77.160156 66.417969 c -8.171875 0 -14.792968 6.621093 -14.792968 14.792969 c 0 8.167968 6.621093 14.789062 14.792968 14.789062 c 8.167969 0 14.789063 -6.621094 14.789063 -14.789062 c 0 -8.171876 -6.621094 -14.792969 -14.789063 -14.792969 z m 0 0" fill="url(#e)"/>
</svg>
